<svg width="187" height="30" viewBox="0 0 187 30" fill="none" xmlns="http://www.w3.org/2000/svg">
<path d="M145.889 29.1459H154.502C154.803 29.1459 155.092 29.023 155.304 28.8044C155.517 28.5858 155.636 28.2892 155.636 27.98V25.0655C155.636 23.133 156.383 21.2796 157.712 19.9132C159.042 18.5467 160.845 17.779 162.724 17.779H168.531C170.411 17.779 172.213 18.5467 173.543 19.9132C174.872 21.2796 175.619 23.133 175.619 25.0655V27.98C175.619 28.2892 175.738 28.5858 175.951 28.8044C176.164 29.023 176.452 29.1459 176.753 29.1459H185.366C185.667 29.1459 185.955 29.023 186.168 28.8044C186.381 28.5858 186.5 28.2892 186.5 27.98V1.16589C186.5 0.856688 186.381 0.560153 186.168 0.341517C185.955 0.122881 185.667 5.33676e-05 185.366 5.33676e-05H176.753C176.452 5.33676e-05 176.164 0.122881 175.951 0.341517C175.738 0.560153 175.619 0.856688 175.619 1.16589V4.08047C175.619 6.01295 174.872 7.86629 173.543 9.23277C172.213 10.5992 170.411 11.3669 168.531 11.3669H162.724C160.845 11.3669 159.042 10.5992 157.712 9.23277C156.383 7.86629 155.636 6.01295 155.636 4.08047V1.16589C155.636 0.856688 155.517 0.560153 155.304 0.341517C155.092 0.122881 154.803 5.33676e-05 154.502 5.33676e-05H145.889C145.588 5.33676e-05 145.3 0.122881 145.087 0.341517C144.875 0.560153 144.755 0.856688 144.755 1.16589V27.98C144.755 28.2892 144.875 28.5858 145.087 28.8044C145.3 29.023 145.588 29.1459 145.889 29.1459Z" fill="#F4F0E9"/>
<path d="M65.4272 6.40921H68.475C70.3548 6.40921 72.1577 7.17691 73.4869 8.54338C74.8162 9.90986 75.5629 11.7632 75.5629 13.6957V15.4444C75.5629 17.3769 74.8162 19.2302 73.4869 20.5967C72.1577 21.9632 70.3548 22.7309 68.475 22.7309H65.4272C65.1264 22.7309 64.838 22.8537 64.6253 23.0723C64.4126 23.291 64.2931 23.5875 64.2931 23.8967V27.9771C64.2931 28.2863 64.4126 28.5828 64.6253 28.8015C64.838 29.0201 65.1264 29.1429 65.4272 29.1429H96.5942C96.8949 29.1429 97.1834 29.0201 97.396 28.8015C97.6087 28.5828 97.7282 28.2863 97.7282 27.9771V23.8967C97.7282 23.5875 97.6087 23.291 97.396 23.0723C97.1834 22.8537 96.8949 22.7309 96.5942 22.7309H93.5464C91.6665 22.7309 89.8637 21.9632 88.5344 20.5967C87.2052 19.2302 86.4585 17.3769 86.4585 15.4444V13.6957C86.4585 11.7632 87.2052 9.90986 88.5344 8.54338C89.8637 7.17691 91.6665 6.40921 93.5464 6.40921H96.5942C96.8949 6.40921 97.1834 6.28639 97.396 6.06775C97.6087 5.84912 97.7282 5.55258 97.7282 5.24338V1.17756C97.7282 0.868358 97.6087 0.571823 97.396 0.353187C97.1834 0.134551 96.8949 0.0117231 96.5942 0.0117231H65.4272C65.1264 0.0117231 64.838 0.134551 64.6253 0.353187C64.4126 0.571823 64.2931 0.868358 64.2931 1.17756V5.24338C64.2931 5.55258 64.4126 5.84912 64.6253 6.06775C64.838 6.28639 65.1264 6.40921 65.4272 6.40921Z" fill="#F4F0E9"/>
<path d="M101.683 6.40921H108.445C109.42 6.40887 110.385 6.61542 111.279 7.01592C112.173 7.41641 112.977 8.00223 113.641 8.73675C114.304 9.47128 114.814 10.3387 115.136 11.2848C115.459 12.2308 115.588 13.2351 115.516 14.2349L114.535 27.8868C114.522 28.0475 114.543 28.2092 114.594 28.3616C114.645 28.514 114.727 28.6538 114.833 28.7721C114.94 28.8905 115.069 28.9848 115.213 29.0491C115.357 29.1134 115.512 29.1464 115.669 29.1459H127.376C127.532 29.1464 127.688 29.1134 127.832 29.0491C127.975 28.9848 128.105 28.8905 128.211 28.7721C128.318 28.6538 128.399 28.514 128.451 28.3616C128.502 28.2092 128.522 28.0475 128.51 27.8868L127.529 14.2349C127.456 13.2354 127.586 12.2313 127.908 11.2854C128.231 10.3396 128.74 9.47232 129.403 8.73784C130.066 8.00335 130.87 7.41746 131.764 7.01679C132.657 6.61612 133.622 6.40927 134.597 6.40921H141.075C141.376 6.40921 141.664 6.28639 141.877 6.06775C142.09 5.84912 142.209 5.55258 142.209 5.24338V1.17756C142.209 0.868358 142.09 0.571823 141.877 0.353187C141.664 0.134551 141.376 0.0117231 141.075 0.0117231H101.683C101.382 0.0117231 101.094 0.134551 100.881 0.353187C100.669 0.571823 100.549 0.868358 100.549 1.17756V5.24338C100.549 5.55258 100.669 5.84912 100.881 6.06775C101.094 6.28639 101.382 6.40921 101.683 6.40921Z" fill="#F4F0E9"/>
<path d="M56.417 6.06752e-05H5.47765C5.20289 -0.00281989 4.93644 0.0969531 4.72785 0.280827C4.51926 0.464702 4.38273 0.720169 4.34359 0.99976L0.51328 27.8139C0.488155 27.9812 0.498765 28.1522 0.544393 28.3148C0.590022 28.4775 0.669561 28.628 0.777485 28.7558C0.885408 28.8837 1.01915 28.9859 1.16936 29.0552C1.31958 29.1246 1.48268 29.1595 1.64735 29.1575H13.1241C13.2815 29.1581 13.4373 29.125 13.5815 29.0603C13.7258 28.9956 13.8554 28.9008 13.9621 28.7818C14.0688 28.6628 14.1502 28.5223 14.2011 28.3692C14.2521 28.2161 14.2715 28.0538 14.2581 27.8926L13.1978 14.0309C13.1266 13.098 13.2439 12.16 13.5424 11.276C13.8408 10.3919 14.3139 9.58085 14.9319 8.8938C15.5499 8.20675 16.2994 7.65855 17.1335 7.28363C17.9675 6.90872 18.8679 6.71522 19.7782 6.71527C20.6886 6.71478 21.5892 6.90799 22.4235 7.28276C23.2577 7.65753 24.0074 8.20573 24.6255 8.89288C25.2436 9.58002 25.7167 10.3912 26.0149 11.2755C26.3132 12.1597 26.4302 13.0979 26.3586 14.0309L25.3011 27.8926C25.2877 28.0538 25.3071 28.2161 25.3581 28.3692C25.4091 28.5223 25.4905 28.6628 25.5972 28.7818C25.7038 28.9008 25.8334 28.9956 25.9777 29.0603C26.122 29.125 26.2778 29.1581 26.4352 29.1575H35.4595C35.6169 29.1581 35.7727 29.125 35.917 29.0603C36.0612 28.9956 36.1908 28.9008 36.2975 28.7818C36.4042 28.6628 36.4856 28.5223 36.5366 28.3692C36.5875 28.2161 36.607 28.0538 36.5936 27.8926L35.5332 14.0309C35.4616 13.0979 35.5786 12.1597 35.8769 11.2755C36.1752 10.3912 36.6482 9.58002 37.2663 8.89288C37.8844 8.20573 38.6341 7.65753 39.4684 7.28276C40.3026 6.90799 41.2032 6.71478 42.1136 6.71527C43.024 6.71478 43.9247 6.90799 44.7589 7.28276C45.5931 7.65753 46.3428 8.20573 46.9609 8.89288C47.579 9.58002 48.0521 10.3912 48.3504 11.2755C48.6486 12.1597 48.7656 13.0979 48.694 14.0309L47.6337 27.8926C47.6203 28.0538 47.6397 28.2161 47.6907 28.3692C47.7417 28.5223 47.8231 28.6628 47.9297 28.7818C48.0364 28.9008 48.166 28.9956 48.3103 29.0603C48.4546 29.125 48.6104 29.1581 48.7678 29.1575H60.2445C60.4092 29.1595 60.5723 29.1246 60.7225 29.0552C60.8727 28.9859 61.0064 28.8837 61.1144 28.7558C61.2223 28.628 61.3018 28.4775 61.3474 28.3148C61.3931 28.1522 61.4037 27.9812 61.3786 27.8139L57.5454 0.99976C57.5064 0.72117 57.3707 0.466494 57.1633 0.282749C56.9559 0.099003 56.6908 -0.00140384 56.417 6.06752e-05Z" fill="#F4F0E9"/>
</svg>
